<svg width="91" height="93" viewBox="0 0 91 93" fill="none" xmlns="http://www.w3.org/2000/svg">
<path d="M80.8478 0H9.62474C4.30914 0 0 4.30914 0 9.62474V82.7727C0 88.0883 4.30914 92.3975 9.62474 92.3975H80.8478C86.1634 92.3975 90.4725 88.0883 90.4725 82.7727V9.62474C90.4725 4.30914 86.1634 0 80.8478 0Z" fill="#393E46"/>
<path d="M72.0742 33.1028C73.1741 35.5857 73.7305 38.2646 73.6086 40.9105C73.5076 43.5556 72.7309 46.1286 71.498 48.4229C70.2598 50.7192 68.5672 52.7505 66.6706 54.4521C65.8357 55.1768 64.9835 55.8488 64.0966 56.4452C63.2162 57.0189 62.3721 57.5634 61.4699 58.0387C55.2576 61.434 48.2812 62.7241 41.6333 61.9838L39.4163 74.8037C39.0795 76.5637 31.7527 76.5207 31.2337 74.7335L25.1689 35.6248C21.4541 36.722 18.5296 37.2555 18.4213 36.4925L18.3038 36.0272L16.0413 27.0494L21.8402 22.7783C26.023 19.6972 30.7158 17.7486 35.3916 16.7872C40.0788 15.8148 44.7854 15.8112 49.3014 16.6707C53.8128 17.5211 58.164 19.2163 62.0328 21.7703C62.9806 22.4459 63.9247 23.1197 64.8144 23.8635L66.1118 25.0335C66.5516 25.4259 66.9431 25.8065 67.3828 26.2718C69.3431 28.3113 70.977 30.6136 72.0742 33.1028ZM58.1512 43.251C58.4881 41.9044 58.0273 40.5276 57.1368 39.7263C56.7098 39.3157 56.2273 39.0216 55.762 38.8149C55.4015 38.5764 54.8798 38.3478 54.4765 38.1002C54.0258 37.8798 53.546 37.7014 53.0963 37.4983C51.1888 36.8155 49.101 36.5205 47.046 36.6143C46.6964 36.6271 46.3504 36.6699 46.0044 36.7082L43.1664 53.1195C47.5595 52.4575 51.6768 50.5919 54.789 47.896C55.287 47.4908 55.7504 47.0155 56.1837 46.5867C56.5971 46.1597 56.9586 45.7027 57.29 45.2557C57.7079 44.5965 57.9983 43.9266 58.1512 43.251Z" fill="#1976D2"/>
</svg>
