<svg width="429" height="93" viewBox="0 0 429 93" fill="none" xmlns="http://www.w3.org/2000/svg">
<g clip-path="url(#clip0_35_2)">
<path d="M80.8478 0H9.62474C4.30914 0 0 4.30914 0 9.62474V82.7727C0 88.0883 4.30914 92.3975 9.62474 92.3975H80.8478C86.1634 92.3975 90.4725 88.0883 90.4725 82.7727V9.62474C90.4725 4.30914 86.1634 0 80.8478 0Z" fill="#393E46"/>
<path d="M72.0742 33.1028C73.1741 35.5857 73.7305 38.2646 73.6086 40.9105C73.5076 43.5556 72.7309 46.1286 71.498 48.4229C70.2598 50.7192 68.5672 52.7505 66.6706 54.4521C65.8357 55.1768 64.9835 55.8488 64.0966 56.4452C63.2162 57.0189 62.3721 57.5634 61.4699 58.0387C55.2576 61.434 48.2812 62.7241 41.6333 61.9838L39.4163 74.8037C39.0795 76.5637 31.7527 76.5207 31.2337 74.7335L25.1689 35.6248C21.4541 36.722 18.5296 37.2555 18.4213 36.4925L18.3038 36.0272L16.0413 27.0494L21.8402 22.7783C26.023 19.6972 30.7158 17.7486 35.3916 16.7872C40.0788 15.8148 44.7854 15.8112 49.3014 16.6707C53.8128 17.5211 58.164 19.2163 62.0328 21.7703C62.9806 22.4459 63.9247 23.1197 64.8144 23.8635L66.1118 25.0335C66.5516 25.4259 66.9431 25.8065 67.3828 26.2718C69.3431 28.3113 70.977 30.6136 72.0742 33.1028ZM58.1512 43.251C58.4881 41.9044 58.0273 40.5276 57.1368 39.7263C56.7098 39.3157 56.2273 39.0216 55.762 38.8149C55.4015 38.5764 54.8798 38.3478 54.4765 38.1002C54.0258 37.8798 53.546 37.7014 53.0963 37.4983C51.1888 36.8155 49.101 36.5205 47.046 36.6143C46.6964 36.6271 46.3504 36.6699 46.0044 36.7082L43.1664 53.1195C47.5595 52.4575 51.6768 50.5919 54.789 47.896C55.287 47.4908 55.7504 47.0155 56.1837 46.5867C56.5971 46.1597 56.9586 45.7027 57.29 45.2557C57.7079 44.5965 57.9983 43.9266 58.1512 43.251Z" fill="#1976D2"/>
<path d="M132.391 22.4584C141.227 22.4584 148.415 29.6472 148.415 38.4828C148.415 47.3185 141.227 54.5073 132.391 54.5073H119.875V67.0234C119.875 69.118 118.177 70.816 116.082 70.816C113.988 70.816 112.29 69.1178 112.29 67.0234V50.7145C112.29 48.6199 113.988 46.9218 116.082 46.9218H132.391C137.044 46.9218 140.83 43.1361 140.83 38.4827C140.83 33.8292 137.044 30.0435 132.391 30.0435H125.238L133.034 37.8388C134.515 39.3199 134.515 41.7213 133.034 43.2024C131.552 44.684 129.151 44.684 127.67 43.2024L113.399 28.932C112.315 27.8472 111.99 26.216 112.578 24.7987C113.165 23.3815 114.548 22.4577 116.082 22.4577L132.391 22.4584ZM169.538 35.2594C171.633 35.2594 173.331 36.9576 173.331 39.0521C173.331 41.1465 171.633 42.8447 169.538 42.8447C163.918 42.8447 159.345 47.4173 159.345 53.0379V67.0237C159.345 69.1183 157.647 70.8164 155.552 70.8164C153.458 70.8164 151.76 69.1182 151.76 67.0237V39.0521C151.76 36.9575 153.458 35.2594 155.552 35.2594C157.464 35.2594 159.041 36.6756 159.303 38.515C162.199 36.4674 165.729 35.2594 169.538 35.2594ZM180.446 35.2594C182.541 35.2594 184.239 36.9576 184.239 39.0521V67.0237C184.239 69.1183 182.541 70.8164 180.446 70.8164C178.352 70.8164 176.654 69.1182 176.654 67.0237V39.0521C176.654 36.9575 178.352 35.2594 180.446 35.2594ZM176.943 27.7018C176.848 27.4742 176.777 27.2324 176.729 26.9906C176.677 26.7488 176.654 26.4975 176.654 26.251C176.654 26.0045 176.677 25.7532 176.729 25.5114C176.777 25.2696 176.848 25.0278 176.943 24.8002C177.038 24.5727 177.156 24.3498 177.294 24.146C177.431 23.9374 177.587 23.743 177.763 23.5676C177.938 23.3922 178.133 23.2357 178.341 23.0983C178.545 22.9608 178.768 22.8422 178.996 22.7475C179.223 22.6527 179.465 22.5816 179.707 22.5341C180.939 22.2828 182.248 22.6906 183.13 23.5677C183.3 23.7431 183.462 23.9374 183.599 24.146C183.737 24.3499 183.855 24.5727 183.95 24.8003C184.045 25.0279 184.116 25.2696 184.163 25.5114C184.215 25.7532 184.239 26.0045 184.239 26.251C184.239 26.4975 184.215 26.7488 184.163 26.9906C184.116 27.2324 184.045 27.4742 183.95 27.7018C183.855 27.9293 183.737 28.1522 183.599 28.356C183.462 28.5646 183.3 28.759 183.13 28.9344C182.954 29.1098 182.76 29.2663 182.551 29.4038C182.347 29.5412 182.125 29.6598 181.897 29.7546C181.67 29.8493 181.428 29.9205 181.186 29.9679C180.944 30.02 180.693 30.0437 180.446 30.0437C180.2 30.0437 179.949 30.02 179.707 29.9679C179.465 29.9205 179.223 29.8494 178.996 29.7546C178.768 29.6598 178.545 29.5412 178.341 29.4038C178.133 29.2663 177.938 29.1098 177.763 28.9344C177.588 28.759 177.431 28.5646 177.294 28.356C177.156 28.1522 177.038 27.9293 176.943 27.7018ZM201.445 35.2594C209.044 35.2594 215.227 41.4427 215.227 49.0421V67.0244C215.227 69.119 213.528 70.8171 211.434 70.8171C209.34 70.8171 207.641 69.1189 207.641 67.0244V49.0421C207.641 45.6253 204.862 42.8452 201.444 42.8452C198.027 42.8452 195.248 45.6248 195.248 49.0421V67.0244C195.248 69.119 193.549 70.8171 191.455 70.8171C189.36 70.8171 187.662 69.1189 187.662 67.0244V39.0528C187.662 36.9582 189.36 35.2601 191.455 35.2601C192.812 35.2601 193.999 35.9755 194.67 37.0475C196.672 35.912 198.983 35.2594 201.445 35.2594ZM236.699 63.2311C238.793 63.2311 240.491 64.9293 240.491 67.0239C240.491 69.1184 238.793 70.8165 236.699 70.8165C226.739 70.8165 218.635 62.7131 218.635 52.7531V26.2512C218.635 24.1566 220.334 22.4586 222.428 22.4586C224.523 22.4586 226.221 24.1568 226.221 26.2512V35.2695H236.698C238.793 35.2695 240.491 36.9676 240.491 39.0621C240.491 41.1566 238.793 42.8547 236.698 42.8547H226.221V52.7529C226.221 58.5303 230.921 63.2311 236.699 63.2311ZM250.35 37.8397L264.62 52.1101C265.705 53.1949 266.029 54.8261 265.442 56.2433C264.855 57.6606 263.472 58.5844 261.938 58.5844H251.461V67.0232C251.461 69.1178 249.763 70.8158 247.668 70.8158C245.574 70.8158 243.875 69.1176 243.875 67.0232V54.7914C243.875 52.6968 245.574 50.9987 247.668 50.9987H252.782L244.987 43.2034C243.505 41.7224 243.505 39.321 244.987 37.8399C246.468 36.3588 248.869 36.3586 250.35 37.8397ZM278.247 22.4584C280.342 22.4584 282.04 24.1566 282.04 26.251C282.04 28.3455 280.342 30.0437 278.247 30.0437H256.825L264.62 37.839C266.102 39.3201 266.102 41.7214 264.62 43.2026C263.879 43.9431 262.909 44.3134 261.938 44.3134C260.967 44.3134 259.997 43.9431 259.256 43.2026L244.986 28.9321C243.901 27.8474 243.577 26.2162 244.164 24.7989C244.751 23.3817 246.133 22.4579 247.668 22.4579L278.247 22.4584ZM306.819 35.2594C308.914 35.2594 310.612 36.9576 310.612 39.0521V53.0379C310.612 62.8414 302.637 70.8164 292.834 70.8164C283.03 70.8164 275.055 62.8414 275.055 53.0379V39.0521C275.055 36.9575 276.753 35.2594 278.848 35.2594C280.942 35.2594 282.64 36.9576 282.64 39.0521V53.0379C282.64 58.6583 287.213 63.2311 292.834 63.2311C298.454 63.2311 303.027 58.6585 303.027 53.0379V39.0521C303.027 36.9575 304.725 35.2594 306.819 35.2594ZM338.053 49.2453C344 49.2453 348.839 54.0838 348.839 60.0312C348.839 65.9785 344.001 70.8171 338.053 70.8171H324.068C321.973 70.8171 320.275 69.1189 320.275 67.0244C320.275 64.93 321.973 63.2318 324.068 63.2318H338.053C339.818 63.2318 341.254 61.7962 341.254 60.0317C341.254 58.2671 339.818 56.8316 338.053 56.8316H324.068C318.121 56.8316 313.282 51.993 313.282 46.0457C313.282 40.0983 318.12 35.2598 324.068 35.2598H338.053C340.148 35.2598 341.846 36.958 341.846 39.0524C341.846 41.1469 340.148 42.8451 338.053 42.8451H324.068C322.303 42.8451 320.868 44.2806 320.868 46.0452C320.868 47.8097 322.303 49.2453 324.068 49.2453H338.053ZM355.302 35.2594C357.396 35.2594 359.094 36.9576 359.094 39.0521V67.0237C359.094 69.1183 357.396 70.8164 355.302 70.8164C353.207 70.8164 351.509 69.1182 351.509 67.0237V39.0521C351.509 36.9575 353.207 35.2594 355.302 35.2594ZM351.798 27.7018C351.703 27.4742 351.632 27.2324 351.585 26.9906C351.533 26.7488 351.509 26.4975 351.509 26.251C351.509 26.0045 351.533 25.7532 351.585 25.5114C351.632 25.2696 351.703 25.0278 351.798 24.8002C351.893 24.5727 352.012 24.3498 352.149 24.146C352.286 23.9374 352.443 23.743 352.618 23.5676C352.794 23.3922 352.988 23.2357 353.197 23.0983C353.401 22.9608 353.623 22.8422 353.851 22.7475C354.079 22.6527 354.32 22.5816 354.562 22.5341C355.795 22.2828 357.103 22.6906 357.985 23.5677C358.156 23.7431 358.317 23.9374 358.455 24.146C358.592 24.3499 358.711 24.5727 358.805 24.8003C358.9 25.0279 358.971 25.2696 359.019 25.5114C359.071 25.7532 359.094 26.0045 359.094 26.251C359.094 26.4975 359.071 26.7488 359.019 26.9906C358.971 27.2324 358.9 27.4742 358.805 27.7018C358.711 27.9293 358.592 28.1522 358.455 28.356C358.317 28.5646 358.156 28.759 357.985 28.9344C357.81 29.1098 357.615 29.2663 357.407 29.4038C357.203 29.5412 356.98 29.6598 356.753 29.7546C356.525 29.8493 356.283 29.9205 356.041 29.9679C355.8 30.02 355.548 30.0437 355.302 30.0437C355.055 30.0437 354.804 30.02 354.562 29.9679C354.32 29.9205 354.079 29.8494 353.851 29.7546C353.624 29.6598 353.401 29.5412 353.197 29.4038C352.988 29.2663 352.794 29.1098 352.618 28.9344C352.443 28.759 352.287 28.5646 352.149 28.356C352.012 28.1522 351.893 27.9293 351.798 27.7018ZM380.296 35.2594C390.099 35.2594 398.074 43.2344 398.074 53.0379C398.074 62.8414 390.099 70.8164 380.296 70.8164C370.492 70.8164 362.517 62.8414 362.517 53.0379C362.517 43.2344 370.492 35.2594 380.296 35.2594ZM380.296 63.2311C385.916 63.2311 390.489 58.6585 390.489 53.0379C390.489 47.4173 385.916 42.8447 380.296 42.8447C374.675 42.8447 370.103 47.4173 370.103 53.0379C370.103 58.6585 374.675 63.2311 380.296 63.2311ZM415.218 35.2594C422.818 35.2594 429 41.4427 429 49.0421V67.0244C429 69.119 427.302 70.8171 425.207 70.8171C423.113 70.8171 421.415 69.1189 421.415 67.0244V49.0421C421.415 45.6253 418.635 42.8452 415.218 42.8452C411.8 42.8452 409.021 45.6248 409.021 49.0421V67.0244C409.021 69.119 407.323 70.8171 405.228 70.8171C403.134 70.8171 401.436 69.1189 401.436 67.0244V39.0528C401.436 36.9582 403.134 35.2601 405.228 35.2601C406.586 35.2601 407.773 35.9755 408.443 37.0475C410.445 35.912 412.757 35.2594 415.218 35.2594Z" fill="#EEEEEE"/>
</g>
<defs>
<clipPath id="clip0_35_2">
<rect width="429" height="92.3975" fill="white"/>
</clipPath>
</defs>
</svg>
